<svg id="Capa_1" enable-background="new 0 0 494.6 494.6" height="512" viewBox="0 0 494.6 494.6" width="512" xmlns="http://www.w3.org/2000/svg"><g><g><path d="m333.48 386.25c-1.796 0-3.606-.543-5.14-1.665l-132.708-97.08c-3.7-2.707-4.396-7.758-1.554-11.282 2.841-3.524 8.146-4.187 11.845-1.48l132.708 97.08c3.7 2.707 4.396 7.758 1.554 11.282-1.663 2.062-4.17 3.145-6.705 3.145z" fill="#655e67"/></g><g><path d="m267.663 301.962c-1.831 0-3.672-.621-5.182-1.894l-53.059-44.73c-3.398-2.864-3.83-7.94-.966-11.338s7.941-3.831 11.338-.966l53.059 44.73c3.397 2.864 3.83 7.94.966 11.338-1.591 1.888-3.866 2.86-6.156 2.86z" fill="#655e67"/></g><g><path d="m222.164 302.798c-2.391 0-4.757-1.061-6.344-3.09-2.737-3.501-2.118-8.557 1.382-11.295l59.685-46.671c3.502-2.737 8.558-2.118 11.295 1.382 2.737 3.501 2.118 8.557-1.382 11.295l-59.685 46.671c-1.471 1.15-3.218 1.708-4.951 1.708z" fill="#655e67"/></g><g><path d="m161.098 388.592c-2.46 0-4.899-1.019-6.569-2.982-2.937-3.453-2.379-8.519 1.246-11.317l132.715-102.407c3.624-2.796 8.944-2.267 11.882 1.187 2.937 3.453 2.379 8.519-1.246 11.317l-132.715 102.407c-1.564 1.207-3.444 1.795-5.313 1.795z" fill="#655e67"/></g><g><path d="m119.435 494.6c4.492 0 8.495-2.836 9.984-7.074l82.891-235.918-19.98-9.998-17.434 10.002-65.635 229.497c-1.933 6.76 3.143 13.491 10.174 13.491z" fill="#cf9875"/></g><g><path d="m375.164 494.6c-4.492 0-8.495-2.836-9.984-7.074l-82.89-235.919 21.318-9.998 16.096 10.001 65.635 229.497c1.933 6.762-3.143 13.493-10.175 13.493z" fill="#cf9875"/></g><g><path d="m321.059 41.646c-9.138-25.01-32.928-41.646-59.555-41.646h-24.504c-26.627 0-50.417 16.636-59.555 41.646l-54.695 149.693c-7.418 20.302.691 43.007 19.292 54.016 6.92 4.096 14.814 6.257 22.855 6.257h168.711c8.041 0 15.935-2.161 22.855-6.257 18.601-11.009 26.71-33.714 19.292-54.016z" fill="#e8e8e8"/></g><g><path d="m375.754 191.338-54.695-149.692c-9.138-25.01-32.928-41.646-59.555-41.646h-24.504c-.92 0-1.835.024-2.748.064 25.504 1.101 47.985 17.437 56.807 41.582l54.695 149.693c7.418 20.302-.691 43.007-19.292 54.016-6.92 4.096-14.813 6.256-22.855 6.256h30c8.041 0 15.935-2.161 22.855-6.256 18.601-11.009 26.71-33.715 19.292-54.017z" fill="#d9d9d9"/></g><g><path d="m333.607 229.111h-168.711c-4.007 0-7.948-1.079-11.395-3.119-8.606-5.094-12.807-15.393-10.216-25.046 1.074-4.001 5.19-6.371 9.188-5.299 4 1.074 6.373 5.188 5.299 9.188-.853 3.178.532 6.57 3.369 8.249 1.135.672 2.434 1.027 3.754 1.027h168.711c1.321 0 2.619-.355 3.754-1.027 2.794-1.653 4.19-5.001 3.397-8.142-1.015-4.016 1.419-8.094 5.435-9.108 4.013-1.016 8.094 1.419 9.108 5.435 2.41 9.541-1.826 19.708-10.3 24.723-3.445 2.04-7.385 3.119-11.393 3.119z" fill="#c8c3ca"/></g></g></svg>